<svg xmlns="http://www.w3.org/2000/svg" xmlns:xlink="http://www.w3.org/1999/xlink" fill="none" version="1.1" width="1704" height="500" viewBox="0 0 1704 500"><defs><clipPath id="master_svg0_1_3341"><rect x="0" y="0" width="1704" height="500" rx="0"/></clipPath></defs><g style="mix-blend-mode:passthrough" clip-path="url(#master_svg0_1_3341)"><g style="mix-blend-mode:passthrough"><g style="mix-blend-mode:passthrough"><path d="M498.5648,170L514.063,191.9058L469.7099,223.972L513.528,280.491L492.2528,296.793L452.9436,246.4438L452.9436,296.793L412,296.793L412,170L452.9436,170L452.9436,202.7738L498.5648,170ZM563.1220000000001,257.1137L563.1220000000001,273.246L619.029,270.897L619.029,292.633L522.179,296.793L522.179,206.2266L617.761,206.2266L617.761,257.1137L563.1220000000001,257.1137ZM596.119,239.0004L596.119,224.3399L563.1220000000001,224.3399L563.1220000000001,239.0004L596.119,239.0004ZM671.328,257.1137L671.328,273.246L727.235,270.897L727.235,292.633L630.385,296.793L630.385,206.2266L725.967,206.2266L725.967,257.1137L671.328,257.1137ZM704.325,239.0004L704.325,224.3399L671.328,224.3399L671.328,239.0004L704.325,239.0004ZM738.788,206.2266L835.6379999999999,206.2266L835.6379999999999,277.406L779.732,279.755L779.732,323.96299999999997L738.788,323.96299999999997L738.788,206.2266ZM779.732,258.0194L808.756,256.7741L808.756,227.9626L779.732,227.9626L779.732,258.0194ZM887.74,257.1137L887.74,273.246L943.647,270.897L943.647,292.633L846.797,296.793L846.797,206.2266L942.379,206.2266L942.379,257.1137L887.74,257.1137ZM920.738,239.0004L920.738,224.3399L887.74,224.3399L887.74,239.0004L920.738,239.0004ZM1016.319,206.2266L1028.774,230.1419L995.777,247.7174L995.777,296.793L954.834,296.793L954.834,206.2266L995.777,206.2266L995.777,217.0946L1016.319,206.2266Z" fill="#3D3D3D" fill-opacity="1"/></g><g style="mix-blend-mode:passthrough"><path d="M411.63189697265625,432.4096775390625L422.31109697265623,432.4096775390625L422.31109697265623,409.7864775390625L441.27539697265627,409.7864775390625L441.27539697265627,400.8315775390625L422.31109697265623,400.8315775390625L422.31109697265623,387.0926775390625L444.51439697265624,387.0926775390625L444.51439697265624,378.1141075390625L411.63189697265625,378.1141075390625L411.63189697265625,432.4096775390625ZM469.69849697265624,433.9178775390625C479.79089697265624,433.9178775390625,489.1086969726563,426.1175775390625,489.1086969726563,412.0488775390625C489.1086969726563,398.0036775390625,479.79089697265624,390.1797775390625,469.69849697265624,390.1797775390625C459.53559697265626,390.1797775390625,450.3115969726563,398.0036775390625,450.3115969726563,412.0488775390625C450.3115969726563,426.1175775390625,459.53559697265626,433.9178775390625,469.69849697265624,433.9178775390625ZM469.69849697265624,425.2456775390625C464.1593969726563,425.2456775390625,461.13159697265627,420.0847775390625,461.13159697265627,412.0488775390625C461.13159697265627,404.1071775390625,464.1593969726563,398.8755775390625,469.69849697265624,398.8755775390625C475.19059697265624,398.8755775390625,478.2886969726562,404.1071775390625,478.2886969726562,412.0488775390625C478.2886969726562,420.0847775390625,475.19059697265624,425.2456775390625,469.69849697265624,425.2456775390625ZM497.88679697265627,432.4096775390625L508.49549697265627,432.4096775390625L508.49549697265627,408.2075775390625C510.79569697265623,401.7505775390625,514.5508969726562,399.6060775390625,517.6488969726563,399.6060775390625C519.3858969726563,399.6060775390625,520.5358969726562,399.8181775390625,521.9678969726563,400.2659775390625L523.7048969726562,391.6879775390625C522.5548969726563,390.5568775390625,521.2638969726563,390.1797775390625,519.0108969726563,390.1797775390625C514.8328969726563,390.1797775390625,510.51399697265623,393.0783775390625,507.55669697265625,398.3806775390625L507.34549697265624,398.3806775390625L506.54749697265623,391.6879775390625L497.88679697265627,391.6879775390625L497.88679697265627,432.4096775390625ZM546.8228969726563,432.4096775390625L557.5018969726563,432.4096775390625L557.5018969726563,409.7864775390625L576.4668969726563,409.7864775390625L576.4668969726563,400.8315775390625L557.5018969726563,400.8315775390625L557.5018969726563,387.0926775390625L579.7058969726563,387.0926775390625L579.7058969726563,378.1141075390625L546.8228969726563,378.1141075390625L546.8228969726563,432.4096775390625ZM598.0358969726562,433.9178775390625C600.5008969726563,433.9178775390625,602.2138969726562,433.4936775390625,603.4578969726563,432.9988775390625L602.1438969726562,425.1042775390625C601.4398969726562,425.2456775390625,601.1348969726562,425.2456775390625,600.7118969726563,425.2456775390625C599.7028969726563,425.2456775390625,598.6228969726562,424.4444775390625,598.6228969726562,421.99357753906247L598.6228969726562,375.1448175390625L588.0138969726563,375.1448175390625L588.0138969726563,421.54587753906253C588.0138969726563,429.08687753906247,590.6198969726563,433.9178775390625,598.0358969726562,433.9178775390625ZM622.5868969726563,433.9178775390625C628.1488969726563,433.9178775390625,631.9748969726562,431.1842775390625,635.4248969726563,427.0602775390625L635.7068969726563,427.0602775390625L636.5048969726563,432.4096775390625L645.1658969726562,432.4096775390625L645.1658969726562,391.6879775390625L634.5568969726562,391.6879775390625L634.5568969726562,419.6369775390625C631.8338969726562,423.33687753906247,629.6508969726563,424.7979775390625,626.4128969726562,424.7979775390625C622.4458969726562,424.7979775390625,620.6388969726563,422.5827775390625,620.6388969726563,416.1728775390625L620.6388969726563,391.6879775390625L610.1238969726562,391.6879775390625L610.1238969726562,417.4925775390625C610.1238969726562,427.8378775390625,613.8788969726563,433.9178775390625,622.5868969726563,433.9178775390625ZM671.8988969726563,433.9178775390625C675.4428969726562,433.9178775390625,678.2358969726563,433.0695775390625,680.4888969726562,432.4096775390625L678.6818969726562,424.6329775390625C677.6018969726563,425.0806775390625,676.0058969726563,425.5284775390625,674.7148969726563,425.5284775390625C671.1008969726563,425.5284775390625,669.1528969726562,423.2896775390625,669.1528969726562,418.5529775390625L669.1528969726562,400.1009775390625L679.1748969726563,400.1009775390625L679.1748969726563,391.6879775390625L669.1528969726562,391.6879775390625L669.1528969726562,380.7770475390625L660.4448969726562,380.7770475390625L659.2008969726562,391.6879775390625L652.9338969726563,392.2064775390625L652.9338969726563,400.1009775390625L658.6378969726562,400.1009775390625L658.6378969726562,418.6236775390625C658.6378969726562,427.7671775390625,662.2988969726563,433.9178775390625,671.8988969726563,433.9178775390625ZM701.9408969726562,433.9178775390625C705.4848969726563,433.9178775390625,708.2778969726562,433.0695775390625,710.5318969726562,432.4096775390625L708.7238969726562,424.6329775390625C707.6448969726562,425.0806775390625,706.0488969726562,425.5284775390625,704.7578969726562,425.5284775390625C701.1428969726562,425.5284775390625,699.1948969726562,423.2896775390625,699.1948969726562,418.5529775390625L699.1948969726562,400.1009775390625L709.2168969726563,400.1009775390625L709.2168969726563,391.6879775390625L699.1948969726562,391.6879775390625L699.1948969726562,380.7770475390625L690.4878969726562,380.7770475390625L689.2438969726563,391.6879775390625L682.9768969726563,392.2064775390625L682.9768969726563,400.1009775390625L688.6798969726563,400.1009775390625L688.6798969726563,418.6236775390625C688.6798969726563,427.7671775390625,692.3418969726563,433.9178775390625,701.9408969726562,433.9178775390625ZM734.7998969726563,433.9178775390625C739.7758969726563,433.9178775390625,744.8928969726562,432.1975775390625,748.8588969726562,429.4403775390625L745.2448969726563,422.8655775390625C742.2878969726562,424.7036775390625,739.4938969726563,425.6698775390625,736.2318969726563,425.6698775390625C730.1768969726563,425.6698775390625,725.8578969726562,422.2056775390625,724.9898969726562,415.4658775390625L749.8688969726563,415.4658775390625C750.1498969726563,414.45257753906253,750.3608969726563,412.4965775390625,750.3608969726563,410.5406775390625C750.3608969726563,398.3099775390625,744.6108969726563,390.1797775390625,733.5088969726562,390.1797775390625C723.9098969726563,390.1797775390625,714.6858969726562,398.3806775390625,714.6858969726562,412.4258775390625C714.6858969726562,426.0468775390625,723.4638969726562,433.9178775390625,734.7998969726563,433.9178775390625ZM724.7778969726562,408.2782775390625C725.6468969726562,401.7976775390625,729.3788969726563,398.4513775390625,733.6498969726563,398.4513775390625C738.9078969726563,398.4513775390625,741.2778969726562,402.2925775390625,741.2778969726562,408.2782775390625L724.7778969726562,408.2782775390625ZM759.2568969726562,432.4096775390625L769.8658969726562,432.4096775390625L769.8658969726562,408.2075775390625C772.1658969726562,401.7505775390625,775.9208969726562,399.6060775390625,779.0188969726562,399.6060775390625C780.7558969726563,399.6060775390625,781.9058969726563,399.8181775390625,783.3378969726563,400.2659775390625L785.0748969726562,391.6879775390625C783.9238969726562,390.5568775390625,782.6338969726562,390.1797775390625,780.3798969726563,390.1797775390625C776.2028969726563,390.1797775390625,771.8838969726562,393.0783775390625,768.9268969726563,398.3806775390625L768.7148969726563,398.3806775390625L767.9168969726563,391.6879775390625L759.2568969726562,391.6879775390625L759.2568969726562,432.4096775390625ZM808.1928969726562,432.4096775390625L817.7928969726563,432.4096775390625L817.7928969726563,409.7864775390625C817.7928969726563,404.7198775390625,816.9238969726562,397.0609775390625,816.4078969726563,391.8058775390625L816.7128969726563,391.8058775390625L820.9608969726562,404.8612775390625L829.2468969726563,427.7200775390625L835.3718969726563,427.7200775390625L843.6108969726563,404.8612775390625L847.9288969726563,391.8058775390625L848.2808969726563,391.8058775390625C847.7178969726563,397.0609775390625,846.9198969726563,404.7198775390625,846.9198969726563,410.0457775390625L846.9198969726563,432.4096775390625L856.6598969726563,432.4096775390625L856.6598969726563,378.1141075390625L844.8308969726563,378.1141075390625L835.8888969726563,403.7300775390625C834.8088969726563,407.1235775390625,833.8698969726563,410.7998775390625,832.7198969726562,414.3111775390625L832.3448969726562,414.3111775390625C831.2648969726563,410.7998775390625,830.2558969726563,407.1235775390625,829.1058969726562,403.7300775390625L820.0218969726562,378.1141075390625L808.1928969726562,378.1141075390625L808.1928969726562,432.4096775390625ZM880.9518969726562,433.9178775390625C886.5148969726563,433.9178775390625,890.3408969726563,431.1842775390625,893.7908969726562,427.0602775390625L894.0728969726563,427.0602775390625L894.8708969726563,432.4096775390625L903.5308969726563,432.4096775390625L903.5308969726563,391.6879775390625L892.9228969726562,391.6879775390625L892.9228969726562,419.6369775390625C890.1998969726562,423.33687753906247,888.0168969726562,424.7979775390625,884.7778969726562,424.7979775390625C880.8118969726563,424.7979775390625,879.0038969726563,422.5827775390625,879.0038969726563,416.1728775390625L879.0038969726563,391.6879775390625L868.4898969726562,391.6879775390625L868.4898969726562,417.4925775390625C868.4898969726562,427.8378775390625,872.2448969726563,433.9178775390625,880.9518969726562,433.9178775390625ZM925.4998969726563,433.9178775390625C927.9638969726562,433.9178775390625,929.6778969726563,433.4936775390625,930.9218969726562,432.9988775390625L929.6068969726563,425.1042775390625C928.9028969726562,425.2456775390625,928.5978969726563,425.2456775390625,928.1758969726562,425.2456775390625C927.1658969726562,425.2456775390625,926.0868969726563,424.4444775390625,926.0868969726563,421.99357753906247L926.0868969726563,375.1448175390625L915.4778969726563,375.1448175390625L915.4778969726563,421.54587753906253C915.4778969726563,429.08687753906247,918.0828969726563,433.9178775390625,925.4998969726563,433.9178775390625ZM952.7958969726562,433.9178775390625C956.3398969726562,433.9178775390625,959.1328969726562,433.0695775390625,961.3868969726562,432.4096775390625L959.5788969726563,424.6329775390625C958.4998969726563,425.0806775390625,956.9038969726563,425.5284775390625,955.6128969726562,425.5284775390625C951.9978969726562,425.5284775390625,950.0498969726563,423.2896775390625,950.0498969726563,418.5529775390625L950.0498969726563,400.1009775390625L960.0718969726563,400.1009775390625L960.0718969726563,391.6879775390625L950.0498969726563,391.6879775390625L950.0498969726563,380.7770475390625L941.3428969726563,380.7770475390625L940.0988969726562,391.6879775390625L933.8318969726563,392.2064775390625L933.8318969726563,400.1009775390625L939.5348969726563,400.1009775390625L939.5348969726563,418.6236775390625C939.5348969726563,427.7671775390625,943.1968969726563,433.9178775390625,952.7958969726562,433.9178775390625ZM968.0518969726562,432.4096775390625L978.6608969726562,432.4096775390625L978.6608969726562,391.6879775390625L968.0518969726562,391.6879775390625L968.0518969726562,432.4096775390625ZM973.4038969726563,385.1838775390625C976.9948969726563,385.1838775390625,979.5298969726563,382.9450975390625,979.5298969726563,379.3866575390625C979.5298969726563,375.9224875390625,976.9948969726563,373.5894775390625,973.4038969726563,373.5894775390625C969.6478969726562,373.5894775390625,967.2538969726562,375.9224875390625,967.2538969726562,379.3866575390625C967.2538969726562,382.9450975390625,969.6478969726562,385.1838775390625,973.4038969726563,385.1838775390625ZM1017.3408969726562,432.4096775390625L1030.108896972656,432.4096775390625L1046.4208969726562,378.1141075390625L1035.6008969726563,378.1141075390625L1028.6768969726563,404.5784775390625C1027.0108969726562,410.6820775390625,1025.8608969726563,416.1257775390625,1024.1238969726562,422.2056775390625L1023.7718969726562,422.2056775390625C1022.1048969726562,416.1257775390625,1020.9548969726562,410.6820775390625,1019.2888969726563,404.6491775390625L1012.2948969726563,378.1141075390625L1001.0518969726562,378.1141075390625L1017.3408969726562,432.4096775390625ZM1069.7738969726563,433.9178775390625C1074.7498969726562,433.9178775390625,1079.8668969726564,432.1975775390625,1083.8328969726563,429.4403775390625L1080.2188969726562,422.8655775390625C1077.2618969726564,424.7036775390625,1074.4688969726562,425.6698775390625,1071.2058969726563,425.6698775390625C1065.1508969726563,425.6698775390625,1060.8318969726563,422.2056775390625,1059.9638969726561,415.4658775390625L1084.8428969726563,415.4658775390625C1085.1238969726562,414.45257753906253,1085.3348969726562,412.4965775390625,1085.3348969726562,410.5406775390625C1085.3348969726562,398.3099775390625,1079.5848969726562,390.1797775390625,1068.483896972656,390.1797775390625C1058.8838969726562,390.1797775390625,1049.6598969726563,398.3806775390625,1049.6598969726563,412.4258775390625C1049.6598969726563,426.0468775390625,1058.4378969726563,433.9178775390625,1069.7738969726563,433.9178775390625ZM1059.7518969726561,408.2782775390625C1060.6208969726563,401.7976775390625,1064.3528969726563,398.4513775390625,1068.6238969726562,398.4513775390625C1073.8818969726562,398.4513775390625,1076.2518969726561,402.2925775390625,1076.2518969726561,408.2782775390625L1059.7518969726561,408.2782775390625ZM1094.2308969726564,432.4096775390625L1104.8398969726563,432.4096775390625L1104.8398969726563,408.2075775390625C1107.1398969726563,401.7505775390625,1110.8948969726562,399.6060775390625,1113.9928969726561,399.6060775390625C1115.7298969726562,399.6060775390625,1116.8798969726563,399.8181775390625,1118.311896972656,400.2659775390625L1120.0488969726562,391.6879775390625C1118.8988969726563,390.5568775390625,1117.6078969726564,390.1797775390625,1115.3538969726562,390.1797775390625C1111.1768969726563,390.1797775390625,1106.8578969726564,393.0783775390625,1103.9008969726563,398.3806775390625L1103.6898969726562,398.3806775390625L1102.8908969726563,391.6879775390625L1094.2308969726564,391.6879775390625L1094.2308969726564,432.4096775390625ZM1137.3228969726563,433.9178775390625C1147.7678969726562,433.9178775390625,1153.4008969726563,428.2856775390625,1153.4008969726563,420.9095775390625C1153.4008969726563,413.1092775390625,1147.4858969726563,410.2342775390625,1142.157896972656,408.1368775390625C1137.8158969726562,406.4637775390625,1134.1548969726564,405.3325775390625,1134.1548969726564,402.2454775390625C1134.1548969726564,399.8181775390625,1135.8678969726561,398.1449775390625,1139.5528969726563,398.1449775390625C1142.5098969726564,398.1449775390625,1145.3268969726564,399.6767775390625,1148.2138969726561,401.7741775390625L1152.9548969726561,395.1757775390625C1149.6448969726562,392.5834775390625,1145.1148969726562,390.1797775390625,1139.2708969726564,390.1797775390625C1130.0238969726563,390.1797775390625,1124.2028969726562,395.3406775390625,1124.2028969726562,402.7638775390625C1124.2028969726562,409.8571775390625,1129.8828969726562,413.1092775390625,1134.9988969726562,415.1594775390625C1139.2708969726564,416.9033775390625,1143.4488969726563,418.3408775390625,1143.4488969726563,421.4986775390625C1143.4488969726563,424.1616775390625,1141.6418969726562,425.9761775390625,1137.6048969726562,425.9761775390625C1133.7788969726562,425.9761775390625,1130.3988969726563,424.2323775390625,1126.7848969726563,421.3573775390625L1121.9498969726562,428.2856775390625C1125.9868969726563,431.6084775390625,1131.9008969726563,433.9178775390625,1137.3228969726563,433.9178775390625ZM1161.8258969726562,432.4096775390625L1172.4348969726561,432.4096775390625L1172.4348969726561,391.6879775390625L1161.8258969726562,391.6879775390625L1161.8258969726562,432.4096775390625ZM1167.1778969726563,385.1838775390625C1170.7688969726562,385.1838775390625,1173.3038969726563,382.9450975390625,1173.3038969726563,379.3866575390625C1173.3038969726563,375.9224875390625,1170.7688969726562,373.5894775390625,1167.1778969726563,373.5894775390625C1163.4228969726564,373.5894775390625,1161.0278969726562,375.9224875390625,1161.0278969726562,379.3866575390625C1161.0278969726562,382.9450975390625,1163.4228969726564,385.1838775390625,1167.1778969726563,385.1838775390625ZM1201.233896972656,433.9178775390625C1211.3258969726562,433.9178775390625,1220.6438969726562,426.1175775390625,1220.6438969726562,412.0488775390625C1220.6438969726562,398.0036775390625,1211.3258969726562,390.1797775390625,1201.233896972656,390.1797775390625C1191.070896972656,390.1797775390625,1181.8468969726564,398.0036775390625,1181.8468969726564,412.0488775390625C1181.8468969726564,426.1175775390625,1191.070896972656,433.9178775390625,1201.233896972656,433.9178775390625ZM1201.233896972656,425.2456775390625C1195.6948969726564,425.2456775390625,1192.666896972656,420.0847775390625,1192.666896972656,412.0488775390625C1192.666896972656,404.1071775390625,1195.6948969726564,398.8755775390625,1201.233896972656,398.8755775390625C1206.7258969726563,398.8755775390625,1209.8238969726563,404.1071775390625,1209.8238969726563,412.0488775390625C1209.8238969726563,420.0847775390625,1206.7258969726563,425.2456775390625,1201.233896972656,425.2456775390625ZM1229.4218969726562,432.4096775390625L1240.0308969726561,432.4096775390625L1240.0308969726561,403.9657775390625C1242.9878969726562,400.9493775390625,1245.1478969726563,399.3232775390625,1248.3868969726564,399.3232775390625C1252.3528969726563,399.3232775390625,1254.0898969726563,401.5384775390625,1254.0898969726563,407.9719775390625L1254.0898969726563,432.4096775390625L1264.6988969726563,432.4096775390625L1264.6988969726563,406.6286775390625C1264.6988969726563,396.2833775390625,1260.9438969726561,390.1797775390625,1252.2118969726562,390.1797775390625C1246.7438969726563,390.1797775390625,1242.6128969726562,393.0783775390625,1239.0918969726563,396.5660775390625L1238.8808969726563,396.5660775390625L1238.0828969726563,391.6879775390625L1229.4218969726562,391.6879775390625L1229.4218969726562,432.4096775390625ZM1293.3798969726563,432.4096775390625L1304.0588969726564,432.4096775390625L1304.0588969726564,412.8029775390625L1311.1938969726561,412.8029775390625C1322.6478969726563,412.8029775390625,1331.8248969726562,407.3120775390625,1331.8248969726562,395.0343775390625C1331.8248969726562,382.3323875390625,1322.7178969726563,378.1141075390625,1310.9128969726562,378.1141075390625L1293.3798969726563,378.1141075390625L1293.3798969726563,432.4096775390625ZM1304.0588969726564,404.3427775390625L1304.0588969726564,386.6684775390625L1310.1148969726562,386.6684775390625C1317.4608969726562,386.6684775390625,1321.3568969726562,388.7658775390625,1321.3568969726562,395.0343775390625C1321.3568969726562,401.2085775390625,1317.8358969726562,404.3427775390625,1310.4668969726563,404.3427775390625L1304.0588969726564,404.3427775390625ZM1340.5798969726561,432.4096775390625L1351.1878969726563,432.4096775390625L1351.1878969726563,408.2075775390625C1353.4878969726562,401.7505775390625,1357.2438969726563,399.6060775390625,1360.3418969726563,399.6060775390625C1362.0788969726564,399.6060775390625,1363.2288969726562,399.8181775390625,1364.6608969726562,400.2659775390625L1366.3968969726561,391.6879775390625C1365.2468969726563,390.5568775390625,1363.9558969726563,390.1797775390625,1361.7028969726562,390.1797775390625C1357.5248969726563,390.1797775390625,1353.2068969726563,393.0783775390625,1350.2488969726562,398.3806775390625L1350.0378969726562,398.3806775390625L1349.2398969726562,391.6879775390625L1340.5798969726561,391.6879775390625L1340.5798969726561,432.4096775390625ZM1388.9988969726562,433.9178775390625C1399.0918969726563,433.9178775390625,1408.4098969726563,426.1175775390625,1408.4098969726563,412.0488775390625C1408.4098969726563,398.0036775390625,1399.0918969726563,390.1797775390625,1388.9988969726562,390.1797775390625C1378.8368969726562,390.1797775390625,1369.6128969726562,398.0036775390625,1369.6128969726562,412.0488775390625C1369.6128969726562,426.1175775390625,1378.8368969726562,433.9178775390625,1388.9988969726562,433.9178775390625ZM1388.9988969726562,425.2456775390625C1383.4608969726562,425.2456775390625,1380.4328969726562,420.0847775390625,1380.4328969726562,412.0488775390625C1380.4328969726562,404.1071775390625,1383.4608969726562,398.8755775390625,1388.9988969726562,398.8755775390625C1394.4918969726564,398.8755775390625,1397.5898969726563,404.1071775390625,1397.5898969726563,412.0488775390625C1397.5898969726563,420.0847775390625,1394.4918969726564,425.2456775390625,1388.9988969726562,425.2456775390625ZM1414.3718969726563,448.9999775390625C1424.561896972656,448.9999775390625,1427.9418969726562,442.2130775390625,1427.9418969726562,433.4229775390625L1427.9418969726562,391.6879775390625L1417.2618969726564,391.6879775390625L1417.2618969726564,433.7057775390625C1417.2618969726564,438.2775775390625,1416.2518969726561,440.6105775390625,1412.8718969726563,440.6105775390625C1411.6518969726562,440.6105775390625,1410.5688969726561,440.39847753906247,1409.465896972656,440.0214775390625L1407.6118969726563,447.8452775390625C1409.1838969726564,448.5050775390625,1411.2728969726563,448.9999775390625,1414.3718969726563,448.9999775390625ZM1422.541896972656,385.1838775390625C1426.2018969726564,385.1838775390625,1428.7318969726562,382.9450975390625,1428.7318969726562,379.3866575390625C1428.7318969726562,375.9224875390625,1426.2018969726564,373.5894775390625,1422.541896972656,373.5894775390625C1418.9218969726562,373.5894775390625,1416.3918969726562,375.9224875390625,1416.3918969726562,379.3866575390625C1416.3918969726562,382.9450975390625,1418.9218969726562,385.1838775390625,1422.541896972656,385.1838775390625ZM1457.3218969726563,433.9178775390625C1462.3018969726563,433.9178775390625,1467.4118969726562,432.1975775390625,1471.3818969726562,429.4403775390625L1467.7718969726564,422.8655775390625C1464.8118969726563,424.7036775390625,1462.0118969726564,425.6698775390625,1458.7518969726561,425.6698775390625C1452.7018969726562,425.6698775390625,1448.3818969726562,422.2056775390625,1447.5118969726564,415.4658775390625L1472.3918969726562,415.4658775390625C1472.6718969726562,414.45257753906253,1472.8818969726562,412.4965775390625,1472.8818969726562,410.5406775390625C1472.8818969726562,398.3099775390625,1467.1318969726562,390.1797775390625,1456.0318969726563,390.1797775390625C1446.4318969726562,390.1797775390625,1437.2118969726562,398.3806775390625,1437.2118969726562,412.4258775390625C1437.2118969726562,426.0468775390625,1445.9818969726562,433.9178775390625,1457.3218969726563,433.9178775390625ZM1447.3018969726563,408.2782775390625C1448.1718969726562,401.7976775390625,1451.9018969726562,398.4513775390625,1456.1718969726562,398.4513775390625C1461.4318969726562,398.4513775390625,1463.8018969726563,402.2925775390625,1463.8018969726563,408.2782775390625L1447.3018969726563,408.2782775390625ZM1498.9318969726562,433.9178775390625C1503.4218969726562,433.9178775390625,1508.3218969726563,432.4096775390625,1512.1518969726562,429.0161775390625L1507.9518969726562,421.8286775390625C1505.7218969726562,423.8081775390625,1503.0718969726563,425.2456775390625,1500.1118969726563,425.2456775390625C1494.2618969726564,425.2456775390625,1490.0918969726563,420.0847775390625,1490.0918969726563,412.0488775390625C1490.0918969726563,404.1071775390625,1494.2618969726564,398.8755775390625,1500.4618969726562,398.8755775390625C1502.6918969726562,398.8755775390625,1504.5718969726563,399.8653775390625,1506.5918969726563,401.6091775390625L1511.6318969726562,394.7515775390625C1508.6718969726562,392.0650775390625,1504.8518969726563,390.1797775390625,1499.8718969726563,390.1797775390625C1488.9118969726562,390.1797775390625,1479.2718969726564,398.0036775390625,1479.2718969726564,412.0488775390625C1479.2718969726564,426.1175775390625,1487.8318969726563,433.9178775390625,1498.9318969726562,433.9178775390625ZM1534.1218969726563,433.9178775390625C1537.6618969726562,433.9178775390625,1540.4518969726562,433.0695775390625,1542.7118969726562,432.4096775390625L1540.9018969726562,424.6329775390625C1539.8218969726563,425.0806775390625,1538.2218969726562,425.5284775390625,1536.9318969726562,425.5284775390625C1533.3218969726563,425.5284775390625,1531.3718969726563,423.2896775390625,1531.3718969726563,418.5529775390625L1531.3718969726563,400.1009775390625L1541.3918969726562,400.1009775390625L1541.3918969726562,391.6879775390625L1531.3718969726563,391.6879775390625L1531.3718969726563,380.7770475390625L1522.6618969726562,380.7770475390625L1521.4218969726562,391.6879775390625L1515.1518969726562,392.2064775390625L1515.1518969726562,400.1009775390625L1520.8618969726563,400.1009775390625L1520.8618969726563,418.6236775390625C1520.8618969726563,427.7671775390625,1524.5218969726564,433.9178775390625,1534.1218969726563,433.9178775390625ZM1560.9218969726562,433.9178775390625C1571.3618969726563,433.9178775390625,1577.0018969726561,428.2856775390625,1577.0018969726561,420.9095775390625C1577.0018969726561,413.1092775390625,1571.0818969726563,410.2342775390625,1565.7618969726564,408.1368775390625C1561.4118969726562,406.4637775390625,1557.7518969726561,405.3325775390625,1557.7518969726561,402.2454775390625C1557.7518969726561,399.8181775390625,1559.4718969726562,398.1449775390625,1563.1518969726562,398.1449775390625C1566.1118969726563,398.1449775390625,1568.9218969726562,399.6767775390625,1571.8118969726563,401.7741775390625L1576.5518969726563,395.1757775390625C1573.2418969726561,392.5834775390625,1568.7118969726562,390.1797775390625,1562.8718969726563,390.1797775390625C1553.6218969726563,390.1797775390625,1547.8018969726563,395.3406775390625,1547.8018969726563,402.7638775390625C1547.8018969726563,409.8571775390625,1553.4818969726562,413.1092775390625,1558.6018969726563,415.1594775390625C1562.8718969726563,416.9033775390625,1567.0518969726563,418.3408775390625,1567.0518969726563,421.4986775390625C1567.0518969726563,424.1616775390625,1565.2418969726561,425.9761775390625,1561.2018969726562,425.9761775390625C1557.3818969726562,425.9761775390625,1554.0018969726561,424.2323775390625,1550.3818969726562,421.3573775390625L1545.5518969726563,428.2856775390625C1549.5818969726563,431.6084775390625,1555.5018969726561,433.9178775390625,1560.9218969726562,433.9178775390625Z" fill="#3D3D3D" fill-opacity="1"/></g><g style="mix-blend-mode:passthrough"><path d="M98.00487947883084,120.85100555419922L98.00487947883084,150.6368055541992L161.28827947883084,150.6368055541992L161.28827947883084,120.85100555419922L98.00487947883084,120.85100555419922ZM98.00487947883084,250.59600555419922L98.00487947883084,221.31500555419922L161.28827947883084,221.31500555419922L161.28827947883084,250.59600555419922L98.00487947883084,250.59600555419922ZM98.00487947883084,321.2740055541992L98.00487947883084,449.0000055541992C132.95527947883085,449.0000055541992,161.28827947883084,420.6670055541992,161.28827947883084,385.7170055541992L161.28827947883084,321.2740055541992L98.00487947883084,321.2740055541992Z" fill-rule="evenodd" fill="#FF0000" fill-opacity="1"/></g><g style="mix-blend-mode:passthrough"><path d="M161.28827947883084,53.01403022152222C126.27217947883085,53.398198841522216,98.00487947883084,81.90310084152222,98.00487947883084,117.01010084152222L98.00487947883084,120.85100084152222L161.28827947883084,120.85100084152222L161.28827947883084,53.01403022152222ZM226.58087947883084,120.85100084152222L317.63187947883085,120.85100084152222C335.30487947883086,120.85100084152222,349.63187947883085,106.52410084152223,349.63187947883085,88.85100084152222L349.63187947883085,53.01010084152222L226.58087947883084,53.01010084152222L226.58087947883084,120.85100084152222Z" fill-rule="evenodd" fill="#3183FF" fill-opacity="1"/></g><g style="mix-blend-mode:passthrough"><path d="M161.28830646887565,152.22632498876953L98.15244146887565,152.00757598876953L97.99984237687565,222.36237598876954L161.28830646887565,222.58167598876952L161.28830646887565,152.22632498876953ZM224.57200646887566,222.23357598876953C259.19800646887563,217.94487598876952,286.0230064688757,188.47337598876953,286.10100646887565,152.65876498876952L224.57200646887566,152.44558398876953L224.57200646887566,222.23357598876953Z" fill-rule="evenodd" fill="#35DF63" fill-opacity="1"/></g><g style="mix-blend-mode:passthrough"><path d="M160.78562030263842,252.94934601855468L98.32150630263841,252.5126190185547L98.0041236036384,322.8740190185547L160.78562030263842,323.3129190185547L160.78562030263842,252.94934601855468ZM224.0685203026384,323.7554190185547L288.6315203026384,324.2068190185547L288.6605203026384,317.8454190185547C288.8195203026384,282.4992190185547,260.2945203026384,253.6450790185547,224.94852030263843,253.3979500185547L224.0685203026384,253.39180001855468L224.0685203026384,323.7554190185547Z" fill-rule="evenodd" fill="#FFCD03" fill-opacity="1"/></g><g style="mix-blend-mode:passthrough"><rect x="161.28829193115234" y="251.507568359375" width="62.78111267089844" height="72.86616516113281" rx="0" fill="#35DF63" fill-opacity="1"/></g><g style="mix-blend-mode:passthrough"><rect x="162.29279327392578" y="152.00757598876953" width="65.79460144042969" height="72.86616516113281" rx="0" fill="#FFCD03" fill-opacity="1"/></g><g style="mix-blend-mode:passthrough"><rect x="162.29279327392578" y="51" width="65.79460144042969" height="69.85100555419922" rx="0" fill="#FF0000" fill-opacity="1"/></g></g></g></svg>