<svg xmlns="http://www.w3.org/2000/svg" xmlns:xlink="http://www.w3.org/1999/xlink" fill="none" version="1.1" width="500" height="500" viewBox="0 0 500 500"><defs><clipPath id="master_svg0_1_3366"><rect x="0" y="0" width="500" height="500" rx="0"/></clipPath></defs><g style="mix-blend-mode:passthrough" clip-path="url(#master_svg0_1_3366)"><g style="mix-blend-mode:passthrough"><g style="mix-blend-mode:passthrough"><path d="M130.00460312142968,137.6919174194336L130.00460312142968,166.1306174194336L190.3356031214297,166.1306174194336L190.3356031214297,137.6919174194336L130.00460312142968,137.6919174194336ZM130.00460312142968,261.5689174194336L130.00460312142968,233.6124174194336L190.3356031214297,233.6124174194336L190.3356031214297,261.5689174194336L130.00460312142968,261.5689174194336ZM130.00460312142968,329.05091741943363L130.00460312142968,450.9999174194336C163.32450312142967,450.9999174194336,190.3356031214297,423.9889174194336,190.3356031214297,390.66891741943357L190.3356031214297,329.05091741943363L130.00460312142968,329.05091741943363Z" fill-rule="evenodd" fill="#FF0000" fill-opacity="1"/></g><g style="mix-blend-mode:passthrough"><path d="M190.33570312142967,73.0225978373108C156.6966031214297,74.92383183731079,130.00460312142968,102.80439183731079,130.00460312142968,136.9191918373108L130.00460312142968,137.69189183731078L190.33570312142967,137.69189183731078L190.33570312142967,73.0225978373108ZM252.58160312142968,137.69189183731078L337.8916031214297,137.69189183731078C355.5656031214297,137.69189183731078,369.8916031214297,123.36499183731078,369.8916031214297,105.69189183731079L369.8916031214297,72.91919183731079L252.58160312142968,72.91919183731079L252.58160312142968,137.69189183731078Z" fill-rule="evenodd" fill="#3183FF" fill-opacity="1"/></g><g style="mix-blend-mode:passthrough"><path d="M190.33589002438057,167.64824908984374L130.14545402438057,167.43939208984375L129.99997422538058,234.61189208984376L190.33589002438057,234.82119208984375L190.33589002438057,167.64824908984374ZM250.66719002438057,234.47729208984373C283.68319002438056,230.34269208984375,309.24819002438056,202.22449208984375,309.3221900243806,168.06112308984376L250.66719002438057,167.85759308984376L250.66719002438057,234.47729208984373Z" fill-rule="evenodd" fill="#35DF63" fill-opacity="1"/></g><g style="mix-blend-mode:passthrough"><path d="M189.85692041562424,263.81597281640626L130.30686641562423,263.39898681640625L130.00430606062423,330.57408681640624L189.85692041562424,330.99318681640625L189.85692041562424,263.81597281640626ZM250.18762041562422,331.41568681640626L311.7116204156242,331.84648681640624L311.72562041562423,328.67138681640625C311.88162041562424,294.05268681640626,284.52262041562426,265.6613568164062,250.18762041562422,264.27465881640626L250.18762041562422,331.41568681640626Z" fill-rule="evenodd" fill="#FFCD03" fill-opacity="1"/></g><g style="mix-blend-mode:passthrough"><rect x="190.33571243286133" y="262.43939208984375" width="59.85218048095703" height="69.57070922851562" rx="0" fill="#35DF63" fill-opacity="1"/></g><g style="mix-blend-mode:passthrough"><rect x="191.29335021972656" y="167.43939208984375" width="62.72508239746094" height="69.57070922851562" rx="0" fill="#FFCD03" fill-opacity="1"/></g><g style="mix-blend-mode:passthrough"><rect x="191.29335021972656" y="71" width="62.72508239746094" height="66.6919174194336" rx="0" fill="#FF0000" fill-opacity="1"/></g></g></g></svg>